<svg id="svg" xmlns="http://www.w3.org/2000/svg" xmlns:xlink="http://www.w3.org/1999/xlink" width="400" height="400" viewBox="0, 0, 400,400"><g id="svgg"><path id="path0" d="M167.597 12.917 C 152.834 56.815,132.188 65.374,91.003 44.666 L 77.815 38.035 57.925 57.925 L 38.035 77.815 44.666 91.003 C 65.374 132.188,56.815 152.834,12.917 167.597 L -0.000 171.940 -0.000 200.000 L 0.000 228.060 12.917 232.403 C 56.815 247.166,65.374 267.812,44.666 308.997 L 38.035 322.185 57.925 342.075 L 77.815 361.965 91.003 355.334 C 132.188 334.626,152.834 343.185,167.597 387.083 L 171.940 400.000 200.001 400.000 L 228.062 400.000 231.764 388.750 C 246.705 343.349,267.296 334.367,308.706 355.188 L 322.185 361.965 342.075 342.075 L 361.965 322.185 355.334 308.997 C 334.626 267.812,343.185 247.166,387.083 232.403 L 400.000 228.060 400.000 200.000 L 400.000 171.940 387.083 167.597 C 343.185 152.834,334.626 132.188,355.334 91.003 L 361.965 77.815 342.075 57.925 L 322.185 38.035 308.997 44.666 C 267.812 65.374,247.166 56.815,232.403 12.917 L 228.060 -0.000 200.000 -0.000 L 171.940 0.000 167.597 12.917 M228.678 141.302 C 290.762 171.866,269.244 264.167,200.035 264.167 C 125.499 264.167,109.507 160.452,180.477 137.324 C 193.276 133.153,215.921 135.022,228.678 141.302 " stroke="none" fill="#000000" fill-rule="evenodd"></path></g></svg>